<svg width="1143" height="664" viewBox="0 0 1143 664" fill="none" xmlns="http://www.w3.org/2000/svg">
<g clip-path="url(#clip0_1_2)">
<g opacity="0.1">
<path opacity="0.1" d="M840.37 653.94C852.57 653.94 862.46 640.997 862.46 625.03C862.46 609.063 852.57 596.12 840.37 596.12C828.17 596.12 818.28 609.063 818.28 625.03C818.28 640.997 828.17 653.94 840.37 653.94Z" fill="#3F3D56"/>
<path opacity="0.1" d="M857.85 501.35C860.945 495.979 862.55 489.879 862.5 483.68C862.5 467.68 852.61 454.77 840.41 454.77C828.21 454.77 818.33 467.71 818.33 483.68C818.268 489.875 819.859 495.975 822.94 501.35C819.917 506.747 818.33 512.829 818.33 519.015C818.33 525.201 819.917 531.283 822.94 536.68C819.917 542.079 818.33 548.163 818.33 554.35C818.33 560.537 819.917 566.621 822.94 572.02C819.859 577.395 818.268 583.495 818.33 589.69C818.33 605.69 828.22 618.6 840.41 618.6C852.6 618.6 862.5 605.66 862.5 589.69C862.562 583.495 860.971 577.395 857.89 572.02C860.913 566.621 862.5 560.537 862.5 554.35C862.5 548.163 860.913 542.079 857.89 536.68C860.913 531.283 862.5 525.201 862.5 519.015C862.5 512.829 860.913 506.747 857.89 501.35H857.85Z" fill="#3F3D56"/>
<path opacity="0.1" d="M840.37 477.26C852.57 477.26 862.46 464.317 862.46 448.35C862.46 432.383 852.57 419.44 840.37 419.44C828.17 419.44 818.28 432.383 818.28 448.35C818.28 464.317 828.17 477.26 840.37 477.26Z" fill="#3F3D56"/>
<path opacity="0.1" d="M840.37 441.92C852.57 441.92 862.46 428.977 862.46 413.01C862.46 397.043 852.57 384.1 840.37 384.1C828.17 384.1 818.28 397.043 818.28 413.01C818.28 428.977 828.17 441.92 840.37 441.92Z" fill="#3F3D56"/>
<path opacity="0.1" d="M923.05 171.19C926.065 167.347 928.811 163.3 931.27 159.08L873.27 149.55L936.04 150.02C942.056 136.919 945.336 122.728 945.68 108.316C946.024 93.904 943.424 79.5731 938.04 66.2L853.82 109.86L931.5 52.8C924.22 40.2369 914.433 29.3067 902.746 20.6897C891.06 12.0727 877.725 5.95346 863.571 2.71277C849.418 -0.52791 834.749 -0.820625 820.477 1.85286C806.206 4.52634 792.637 10.1088 780.616 18.2527C768.595 26.3966 758.38 36.9277 750.604 49.1904C742.829 61.453 737.662 75.1848 735.423 89.531C733.184 103.877 733.922 118.531 737.591 132.579C741.261 146.628 747.782 159.771 756.75 171.19C752.05 177.169 748.006 183.636 744.69 190.48L820.02 229.62L739.7 202.62C734.048 219.286 732.643 237.098 735.611 254.444C738.58 271.79 745.828 288.122 756.7 301.96C744.426 317.564 736.791 336.308 734.667 356.047C732.543 375.786 736.017 395.725 744.691 413.583C753.365 431.441 766.889 446.498 783.716 457.033C800.544 467.567 819.997 473.153 839.85 473.153C859.703 473.153 879.156 467.567 895.984 457.033C912.811 446.498 926.335 431.441 935.009 413.583C943.683 395.725 947.157 375.786 945.033 356.047C942.909 336.308 935.274 317.564 923 301.96C937.667 283.314 945.641 260.279 945.641 236.555C945.641 212.831 937.667 189.796 923 171.15L923.05 171.19Z" fill="#3F3D56"/>
<path opacity="0.1" d="M734.11 236.6C734.073 260.328 742.051 283.373 756.75 302C744.476 317.604 736.841 336.348 734.717 356.087C732.593 375.826 736.067 395.765 744.741 413.623C753.415 431.481 766.939 446.538 783.766 457.072C800.594 467.607 820.047 473.193 839.9 473.193C859.753 473.193 879.206 467.607 896.034 457.072C912.861 446.538 926.385 431.481 935.059 413.623C943.733 395.765 947.207 375.826 945.083 356.087C942.959 336.348 935.324 317.604 923.05 302C937.23 284 734.11 224.72 734.11 236.6Z" fill="black"/>
</g>
<g opacity="0.1">
<path opacity="0.1" d="M220.81 623.02C228.233 623.02 234.25 615.14 234.25 605.42C234.25 595.7 228.233 587.82 220.81 587.82C213.387 587.82 207.37 595.7 207.37 605.42C207.37 615.14 213.387 623.02 220.81 623.02Z" fill="#3F3D56"/>
<path opacity="0.1" d="M231.5 530.13C233.376 526.857 234.346 523.143 234.31 519.37C234.31 509.65 228.31 501.77 220.86 501.77C213.41 501.77 207.42 509.65 207.42 519.37C207.381 523.142 208.347 526.856 210.22 530.13C208.384 533.417 207.421 537.12 207.421 540.885C207.421 544.65 208.384 548.353 210.22 551.64C208.384 554.927 207.421 558.63 207.421 562.395C207.421 566.16 208.384 569.863 210.22 573.15C208.346 576.42 207.379 580.131 207.42 583.9C207.42 593.63 213.42 601.51 220.86 601.51C228.3 601.51 234.31 593.63 234.31 583.9C234.348 580.13 233.378 576.419 231.5 573.15C233.341 569.864 234.308 566.161 234.308 562.395C234.308 558.629 233.341 554.926 231.5 551.64C233.341 548.354 234.308 544.651 234.308 540.885C234.308 537.119 233.341 533.416 231.5 530.13V530.13Z" fill="#3F3D56"/>
<path opacity="0.1" d="M220.81 515.46C228.233 515.46 234.25 507.58 234.25 497.86C234.25 488.14 228.233 480.26 220.81 480.26C213.387 480.26 207.37 488.14 207.37 497.86C207.37 507.58 213.387 515.46 220.81 515.46Z" fill="#3F3D56"/>
<path opacity="0.1" d="M220.81 493.95C228.233 493.95 234.25 486.07 234.25 476.35C234.25 466.63 228.233 458.75 220.81 458.75C213.387 458.75 207.37 466.63 207.37 476.35C207.37 486.07 213.387 493.95 220.81 493.95Z" fill="#3F3D56"/>
<path opacity="0.1" d="M170.5 329.13C168.664 326.792 166.994 324.33 165.5 321.76L200.83 315.96L162.62 316.25C158.962 308.278 156.966 299.645 156.755 290.877C156.543 282.108 158.12 273.389 161.39 265.25L212.62 291.86L165.35 257.06C169.784 249.417 175.743 242.768 182.856 237.527C189.969 232.286 198.085 228.565 206.699 226.595C215.312 224.626 224.239 224.449 232.923 226.078C241.607 227.706 249.864 231.104 257.179 236.06C264.494 241.016 270.71 247.424 275.442 254.886C280.174 262.348 283.32 270.704 284.684 279.433C286.048 288.163 285.601 297.08 283.37 305.63C281.14 314.18 277.174 322.179 271.72 329.13C274.581 332.765 277.042 336.697 279.06 340.86L233.2 364.7L282.1 348.29C285.534 358.439 286.384 369.285 284.571 379.845C282.759 390.405 278.342 400.347 271.72 408.77C279.191 418.269 283.839 429.679 285.131 441.695C286.423 453.712 284.308 465.849 279.028 476.72C273.747 487.59 265.515 496.756 255.271 503.169C245.027 509.581 233.185 512.982 221.1 512.982C209.015 512.982 197.173 509.581 186.929 503.169C176.685 496.756 168.453 487.59 163.172 476.72C157.892 465.849 155.777 453.712 157.069 441.695C158.362 429.679 163.009 418.269 170.48 408.77C161.552 397.417 156.699 383.393 156.699 368.95C156.699 354.507 161.552 340.483 170.48 329.13H170.5Z" fill="#3F3D56"/>
<path opacity="0.1" d="M285.5 368.95C285.521 383.396 280.666 397.427 271.72 408.77C279.191 418.269 283.839 429.679 285.131 441.695C286.423 453.712 284.308 465.849 279.028 476.72C273.747 487.59 265.515 496.756 255.271 503.169C245.027 509.581 233.185 512.982 221.1 512.982C209.015 512.982 197.173 509.581 186.929 503.169C176.685 496.756 168.453 487.59 163.172 476.72C157.892 465.849 155.777 453.712 157.069 441.695C158.362 429.679 163.009 418.269 170.48 408.77C161.85 397.86 285.5 361.72 285.5 368.95Z" fill="black"/>
</g>
<g opacity="0.1">
<path opacity="0.1" d="M558.79 663.932C568.726 663.932 576.78 653.389 576.78 640.382C576.78 627.376 568.726 616.832 558.79 616.832C548.854 616.832 540.8 627.376 540.8 640.382C540.8 653.389 548.854 663.932 558.79 663.932Z" fill="#3F3D56"/>
<path opacity="0.1" d="M573.03 539.622C575.537 535.241 576.832 530.27 576.78 525.222C576.78 512.222 568.78 501.672 558.78 501.672C548.78 501.672 540.78 512.222 540.78 525.222C540.727 530.272 542.025 535.243 544.54 539.622C542.075 544.02 540.781 548.976 540.781 554.017C540.781 559.059 542.075 564.015 544.54 568.412C542.075 572.808 540.781 577.763 540.781 582.802C540.781 587.842 542.075 592.797 544.54 597.192C542.025 601.571 540.727 606.543 540.78 611.592C540.78 624.592 548.84 635.142 558.78 635.142C568.72 635.142 576.78 624.592 576.78 611.592C576.832 606.545 575.537 601.574 573.03 597.192C575.489 592.795 576.781 587.841 576.781 582.802C576.781 577.764 575.489 572.81 573.03 568.412C575.489 564.013 576.781 559.057 576.781 554.017C576.781 548.978 575.489 544.022 573.03 539.622V539.622Z" fill="#3F3D56"/>
<path opacity="0.1" d="M558.79 519.992C568.726 519.992 576.78 509.449 576.78 496.442C576.78 483.436 568.726 472.892 558.79 472.892C548.854 472.892 540.8 483.436 540.8 496.442C540.8 509.449 548.854 519.992 558.79 519.992Z" fill="#3F3D56"/>
<path opacity="0.1" d="M558.79 491.202C568.726 491.202 576.78 480.659 576.78 467.652C576.78 454.646 568.726 444.102 558.79 444.102C548.854 444.102 540.8 454.646 540.8 467.652C540.8 480.659 548.854 491.202 558.79 491.202Z" fill="#3F3D56"/>
<path opacity="0.1" d="M491.48 270.652C489.021 267.525 486.782 264.23 484.78 260.792L532.05 253.032L480.93 253.412C476.025 242.74 473.349 231.18 473.065 219.438C472.781 207.696 474.896 196.019 479.28 185.123L547.88 220.702L484.61 174.202C490.521 163.93 498.487 154.987 508.011 147.932C517.534 140.878 528.41 135.863 539.959 133.201C551.508 130.54 563.482 130.289 575.132 132.464C586.783 134.639 597.859 139.193 607.67 145.843C617.481 152.492 625.815 161.093 632.152 171.108C638.488 181.124 642.691 192.339 644.498 204.052C646.304 215.765 645.676 227.725 642.651 239.184C639.627 250.644 634.272 261.356 626.92 270.652C630.748 275.525 634.04 280.795 636.74 286.372L575.38 318.252L640.81 296.252C645.406 309.833 646.543 324.346 644.118 338.477C641.693 352.608 635.782 365.911 626.92 377.182C636.918 389.895 643.137 405.163 644.866 421.243C646.595 437.323 643.765 453.565 636.699 468.112C629.632 482.66 618.615 494.925 604.907 503.506C591.199 512.087 575.353 516.638 559.18 516.638C543.007 516.638 527.161 512.087 513.453 503.506C499.745 494.925 488.728 482.66 481.661 468.112C474.595 453.565 471.765 437.323 473.494 421.243C475.223 405.163 481.442 389.895 491.44 377.182C479.495 361.99 473.001 343.224 473.001 323.897C473.001 304.571 479.495 285.805 491.44 270.612L491.48 270.652Z" fill="#3F3D56"/>
<path opacity="0.1" d="M645.36 323.942C645.39 343.272 638.892 362.046 626.92 377.222C636.918 389.935 643.137 405.203 644.866 421.283C646.595 437.363 643.765 453.605 636.699 468.152C629.632 482.7 618.615 494.965 604.907 503.546C591.199 512.127 575.353 516.678 559.18 516.678C543.007 516.678 527.161 512.127 513.453 503.546C499.745 494.965 488.728 482.7 481.661 468.152C474.595 453.605 471.765 437.363 473.494 421.283C475.223 405.203 481.442 389.935 491.44 377.222C479.89 362.562 645.36 314.262 645.36 323.942Z" fill="black"/>
</g>
<path d="M1143 636.22C1143 643.09 1092.78 649.37 1009.75 654.22C994.65 655.09 978.47 655.92 961.31 656.7C946.483 657.367 930.943 657.997 914.69 658.59C898.943 659.15 882.593 659.67 865.64 660.15C812.1 661.68 752.91 662.78 690.03 663.33C674.77 663.47 659.307 663.577 643.64 663.65C627.32 663.723 610.813 663.757 594.12 663.75C290.98 663.75 45.25 651.44 45.25 636.25C45.25 621.06 290.98 608.75 594.12 608.75C724.63 608.75 844.48 611.04 938.68 614.84L948.98 615.26H949.04C1067.7 620.29 1143 627.86 1143 636.22Z" fill="#3F3D56"/>
<path opacity="0.15" d="M1143 636.22C1143 643.09 1092.78 649.37 1009.75 654.22C994.65 655.09 978.47 655.92 961.31 656.7C946.483 657.367 930.943 657.997 914.69 658.59C898.943 659.15 882.593 659.67 865.64 660.15C812.1 661.68 752.91 662.78 690.03 663.33C674.77 663.47 659.307 663.577 643.64 663.65C627.32 663.723 610.813 663.757 594.12 663.75C290.98 663.75 45.25 651.44 45.25 636.25C45.25 621.06 290.98 608.75 594.12 608.75C724.63 608.75 844.48 611.04 938.68 614.84L948.98 615.26H949.04C1067.7 620.29 1143 627.86 1143 636.22Z" fill="black"/>
<path d="M1097.75 631.38C1097.75 637.12 1047.53 642.38 964.5 646.38C949.41 647.11 933.22 647.8 916.07 648.45C901.237 649.01 885.697 649.537 869.45 650.03C853.703 650.497 837.353 650.933 820.4 651.34C766.85 652.62 707.66 653.54 644.78 654C629.533 654.113 614.07 654.2 598.39 654.26C582.07 654.32 565.567 654.35 548.88 654.35C245.74 654.35 0 644.06 0 631.35C0 618.64 245.74 608.35 548.88 608.35C679.38 608.35 799.23 610.26 893.43 613.44L903.73 613.79H903.8C1022.5 618.06 1097.75 624.35 1097.75 631.38Z" fill="#3F3D56"/>
<path d="M141.76 422.45L127.98 380.26L457.98 376.65L471.5 418.42L141.76 422.45Z" fill="#3F3D56"/>
<path opacity="0.15" d="M141.76 422.45L127.98 380.26L457.98 376.65L471.5 418.42L141.76 422.45Z" fill="black"/>
<path d="M119.76 422.45L105.98 380.26L435.98 376.65L449.5 418.42L119.76 422.45Z" fill="#CE111E"/>
<path d="M683.11 357.62C648.99 357.62 622.1 344.077 602.44 316.99C582.78 289.903 572.95 257.09 572.95 218.55C572.95 179.75 582.457 147.003 601.47 120.31C620.483 93.6166 647.303 80.2833 681.93 80.31C718.65 80.31 746.317 94.3733 764.93 122.5C783.543 150.627 792.853 183.18 792.86 220.16C792.86 256.873 783.227 288.967 763.96 316.44C744.693 343.913 717.743 357.64 683.11 357.62ZM684.11 327.15C706.557 327.15 723.333 317.367 734.44 297.8C745.547 278.233 751.1 253.567 751.1 223.8C751.1 190.667 745.417 163.537 734.05 142.41C722.683 121.283 705.25 110.717 681.75 110.71C637.083 110.71 614.75 146.19 614.75 217.15C614.75 290.49 637.863 327.157 684.09 327.15H684.11ZM695.35 618.94H646L969.08 85.74H1017.5L695.35 618.94ZM981.17 624.41C946.537 624.41 919.537 610.743 900.17 583.41C880.803 556.077 871.08 523.26 871 484.96C871 446.42 880.44 413.803 899.32 387.11C918.2 360.417 945.087 347.083 979.98 347.11C1016.44 347.11 1043.91 361.173 1062.4 389.3C1080.89 417.427 1090.13 449.977 1090.14 486.95C1090.14 523.423 1080.57 555.457 1061.43 583.05C1042.29 610.643 1015.53 624.43 981.15 624.41H981.17ZM981.75 593.16C1004.09 593.16 1020.78 583.543 1031.81 564.31C1042.84 545.077 1048.36 520.51 1048.36 490.61C1048.36 458.61 1042.78 431.773 1031.61 410.1C1020.44 388.427 1003.05 377.573 979.42 377.54C934.493 377.54 912.03 413.02 912.03 483.98C912.017 556.773 935.25 593.167 981.73 593.16H981.75Z" fill="#3F3D56"/>
<path d="M683.11 357.62C648.99 357.62 622.1 344.077 602.44 316.99C582.78 289.903 572.95 257.09 572.95 218.55C572.95 179.75 582.457 147.003 601.47 120.31C620.483 93.6166 647.303 80.2833 681.93 80.31C718.65 80.31 746.317 94.3733 764.93 122.5C783.543 150.627 792.853 183.18 792.86 220.16C792.86 256.873 783.227 288.967 763.96 316.44C744.693 343.913 717.743 357.64 683.11 357.62ZM684.11 327.15C706.557 327.15 723.333 317.367 734.44 297.8C745.547 278.233 751.1 253.567 751.1 223.8C751.1 190.667 745.417 163.537 734.05 142.41C722.683 121.283 705.25 110.717 681.75 110.71C637.083 110.71 614.75 146.19 614.75 217.15C614.75 290.49 637.863 327.157 684.09 327.15H684.11ZM695.35 618.94H646L969.08 85.74H1017.5L695.35 618.94ZM981.17 624.41C946.537 624.41 919.537 610.743 900.17 583.41C880.803 556.077 871.08 523.26 871 484.96C871 446.42 880.44 413.803 899.32 387.11C918.2 360.417 945.087 347.083 979.98 347.11C1016.44 347.11 1043.91 361.173 1062.4 389.3C1080.89 417.427 1090.13 449.977 1090.14 486.95C1090.14 523.423 1080.57 555.457 1061.43 583.05C1042.29 610.643 1015.53 624.43 981.15 624.41H981.17ZM981.75 593.16C1004.09 593.16 1020.78 583.543 1031.81 564.31C1042.84 545.077 1048.36 520.51 1048.36 490.61C1048.36 458.61 1042.78 431.773 1031.61 410.1C1020.44 388.427 1003.05 377.573 979.42 377.54C934.493 377.54 912.03 413.02 912.03 483.98C912.017 556.773 935.25 593.167 981.73 593.16H981.75Z" fill="#3F3D56"/>
<path opacity="0.15" d="M683.11 357.62C648.99 357.62 622.1 344.077 602.44 316.99C582.78 289.903 572.95 257.09 572.95 218.55C572.95 179.75 582.457 147.003 601.47 120.31C620.483 93.6166 647.303 80.2833 681.93 80.31C718.65 80.31 746.317 94.3733 764.93 122.5C783.543 150.627 792.853 183.18 792.86 220.16C792.86 256.873 783.227 288.967 763.96 316.44C744.693 343.913 717.743 357.64 683.11 357.62ZM684.11 327.15C706.557 327.15 723.333 317.367 734.44 297.8C745.547 278.233 751.1 253.567 751.1 223.8C751.1 190.667 745.417 163.537 734.05 142.41C722.683 121.283 705.25 110.717 681.75 110.71C637.083 110.71 614.75 146.19 614.75 217.15C614.75 290.49 637.863 327.157 684.09 327.15H684.11ZM695.35 618.94H646L969.08 85.74H1017.5L695.35 618.94ZM981.17 624.41C946.537 624.41 919.537 610.743 900.17 583.41C880.803 556.077 871.08 523.26 871 484.96C871 446.42 880.44 413.803 899.32 387.11C918.2 360.417 945.087 347.083 979.98 347.11C1016.44 347.11 1043.91 361.173 1062.4 389.3C1080.89 417.427 1090.13 449.977 1090.14 486.95C1090.14 523.423 1080.57 555.457 1061.43 583.05C1042.29 610.643 1015.53 624.43 981.15 624.41H981.17ZM981.75 593.16C1004.09 593.16 1020.78 583.543 1031.81 564.31C1042.84 545.077 1048.36 520.51 1048.36 490.61C1048.36 458.61 1042.78 431.773 1031.61 410.1C1020.44 388.427 1003.05 377.573 979.42 377.54C934.493 377.54 912.03 413.02 912.03 483.98C912.017 556.773 935.25 593.167 981.73 593.16H981.75Z" fill="black"/>
<path d="M652.11 357.62C617.99 357.62 591.1 344.077 571.44 316.99C551.78 289.903 541.95 257.09 541.95 218.55C541.95 179.75 551.457 147.003 570.47 120.31C589.483 93.6166 616.303 80.2833 650.93 80.31C687.65 80.31 715.317 94.3733 733.93 122.5C752.543 150.627 761.853 183.18 761.86 220.16C761.86 256.873 752.227 288.967 732.96 316.44C713.693 343.913 686.743 357.64 652.11 357.62ZM653.11 327.15C675.557 327.15 692.333 317.367 703.44 297.8C714.547 278.233 720.1 253.567 720.1 223.8C720.1 190.667 714.417 163.537 703.05 142.41C691.683 121.283 674.25 110.717 650.75 110.71C606.083 110.71 583.75 146.19 583.75 217.15C583.75 290.49 606.863 327.157 653.09 327.15H653.11ZM664.35 618.94H615L938.08 85.74H986.5L664.35 618.94ZM950.17 624.41C915.537 624.41 888.537 610.743 869.17 583.41C849.803 556.077 840.08 523.26 840 484.96C840 446.42 849.44 413.803 868.32 387.11C887.2 360.417 914.087 347.083 948.98 347.11C985.44 347.11 1012.91 361.173 1031.4 389.3C1049.89 417.427 1059.13 449.977 1059.14 486.95C1059.14 523.423 1049.57 555.457 1030.43 583.05C1011.29 610.643 984.53 624.43 950.15 624.41H950.17ZM950.75 593.16C973.09 593.16 989.777 583.543 1000.81 564.31C1011.84 545.077 1017.36 520.51 1017.36 490.61C1017.36 458.61 1011.78 431.773 1000.61 410.1C989.443 388.427 972.04 377.573 948.4 377.54C903.473 377.54 881.01 413.02 881.01 483.98C881.01 556.773 904.25 593.167 950.73 593.16H950.75Z" fill="#CE111E"/>
<path d="M760.07 632.32C764.19 624.68 759.51 615.32 754.13 608.5C748.75 601.68 742.19 594.6 742.33 585.91C742.53 573.44 755.77 566.07 766.33 559.45C774.184 554.544 781.428 548.723 787.91 542.11C790.625 539.563 792.869 536.557 794.54 533.23C796.73 528.35 796.66 522.8 796.54 517.46C796.08 499.647 795.2 481.86 793.9 464.1" stroke="#3F3D56" stroke-width="4" stroke-miterlimit="10"/>
<path d="M814.02 463.12C813.87 459.862 812.901 456.693 811.204 453.908C809.507 451.122 807.136 448.808 804.31 447.18L799.95 455.8L800.08 445.36C798 444.752 795.834 444.492 793.67 444.59C789.825 444.77 786.121 446.086 783.024 448.372C779.928 450.658 777.579 453.81 776.274 457.431C774.969 461.052 774.767 464.978 775.694 468.714C776.62 472.449 778.634 475.826 781.479 478.417C784.325 481.008 787.875 482.698 791.681 483.271C795.487 483.845 799.377 483.277 802.86 481.64C806.343 480.002 809.263 477.369 811.249 474.072C813.235 470.776 814.2 466.964 814.02 463.12V463.12Z" fill="#3F3D56"/>
<path d="M779.32 594.86C777.278 598.827 773.934 601.972 769.849 603.767C765.764 605.561 761.186 605.897 756.883 604.717C752.58 603.537 748.813 600.914 746.215 597.286C743.616 593.659 742.344 589.249 742.611 584.795C742.878 580.341 744.669 576.114 747.682 572.823C750.695 569.533 754.749 567.378 759.162 566.721C763.575 566.064 768.081 566.945 771.922 569.215C775.763 571.485 778.707 575.007 780.26 579.19L768.1 589.08L781.5 585.96C781.494 589.058 780.747 592.11 779.32 594.86V594.86Z" fill="#3F3D56"/>
<path d="M769.71 557.05C767.157 557.17 764.606 556.785 762.201 555.919C759.797 555.052 757.587 553.721 755.697 552C753.807 550.279 752.275 548.203 751.188 545.89C750.1 543.577 749.479 541.073 749.36 538.52C749.209 535.472 749.784 532.432 751.04 529.65C752.203 527.05 753.921 524.737 756.073 522.873C758.226 521.009 760.761 519.639 763.5 518.86L763.39 526.86L767.8 518.14C772.956 517.899 777.996 519.715 781.813 523.19C785.629 526.665 787.909 531.514 788.15 536.67C788.391 541.826 786.575 546.866 783.1 550.683C779.625 554.499 774.776 556.779 769.62 557.02L769.71 557.05Z" fill="#3F3D56"/>
<path d="M816.95 525.62C814.367 525.792 811.775 525.446 809.327 524.604C806.879 523.762 804.624 522.44 802.692 520.716C800.761 518.992 799.193 516.9 798.081 514.562C796.968 512.225 796.332 509.689 796.211 507.103C796.09 504.517 796.486 501.933 797.376 499.502C798.265 497.07 799.631 494.841 801.393 492.944C803.154 491.047 805.277 489.52 807.635 488.453C809.994 487.386 812.542 486.8 815.13 486.73C818.767 486.553 822.38 487.409 825.55 489.2L822.11 498.62L829.19 491.83C832.99 495.294 835.259 500.124 835.5 505.26C835.589 507.061 835.42 508.866 835 510.62C834.032 514.743 831.746 518.438 828.489 521.145C825.232 523.852 821.181 525.423 816.95 525.62V525.62Z" fill="#3F3D56"/>
<path opacity="0.1" d="M811.4 468.31C806.91 468.8 802.55 470.2 798.04 470.48C793.53 470.76 788.58 469.68 785.73 466.17C784.19 464.29 783.43 461.9 782.13 459.84C780.902 457.922 779.219 456.339 777.23 455.23C775.981 457.697 775.272 460.401 775.15 463.163C775.028 465.926 775.496 468.682 776.523 471.249C777.55 473.816 779.112 476.135 781.105 478.051C783.098 479.967 785.477 481.437 788.083 482.361C790.688 483.286 793.461 483.645 796.216 483.414C798.972 483.183 801.646 482.367 804.061 481.022C806.477 479.676 808.578 477.831 810.224 475.61C811.871 473.389 813.025 470.842 813.61 468.14C812.87 468.18 812.14 468.23 811.4 468.31Z" fill="black"/>
<path opacity="0.1" d="M816.95 525.62C813.597 525.773 810.261 525.056 807.266 523.54C804.27 522.024 801.718 519.76 799.856 516.967C797.993 514.174 796.885 510.947 796.636 507.6C796.388 504.252 797.01 500.897 798.44 497.86C799.982 498.905 801.309 500.236 802.35 501.78C803.74 503.87 804.58 506.29 806.21 508.21C809.21 511.78 814.42 512.94 819.11 512.73C823.8 512.52 828.34 511.18 833.02 510.73C833.67 510.67 834.33 510.63 835.02 510.61C834.053 514.738 831.765 518.438 828.504 521.147C825.242 523.856 821.186 525.427 816.95 525.62V525.62Z" fill="black"/>
<path opacity="0.1" d="M769.71 557.05C767.157 557.17 764.606 556.785 762.201 555.919C759.797 555.052 757.587 553.721 755.697 552C753.807 550.279 752.275 548.203 751.188 545.89C750.1 543.577 749.479 541.073 749.36 538.52C749.209 535.472 749.784 532.432 751.04 529.65C752.645 530.719 754.038 532.075 755.15 533.65C756.66 535.78 757.61 538.24 759.38 540.21C762.66 543.86 768.18 545.15 773.15 545.03C778.12 544.91 782.61 543.75 787.4 543.38C786.213 547.2 783.878 550.561 780.713 553.007C777.547 555.453 773.706 556.865 769.71 557.05V557.05Z" fill="black"/>
<path opacity="0.1" d="M779.32 594.86C777.056 599.31 773.167 602.72 768.459 604.383C763.751 606.047 758.584 605.837 754.026 603.797C749.469 601.757 745.87 598.043 743.974 593.424C742.078 588.805 742.03 583.634 743.84 578.98C745.442 580.034 746.881 581.318 748.11 582.79C749.96 585.05 751.18 587.61 753.32 589.71C757.32 593.61 763.72 595.22 769.44 595.37C772.741 595.397 776.04 595.227 779.32 594.86V594.86Z" fill="black"/>
<path d="M1061.07 631.32C1065.19 623.68 1060.51 614.32 1055.13 607.5C1049.75 600.68 1043.19 593.6 1043.33 584.91C1043.53 572.44 1056.77 565.07 1067.33 558.45C1075.18 553.544 1082.43 547.723 1088.91 541.11C1091.62 538.563 1093.87 535.557 1095.54 532.23C1097.73 527.35 1097.66 521.8 1097.54 516.46C1097.08 498.647 1096.2 480.86 1094.9 463.1" stroke="#3F3D56" stroke-width="4" stroke-miterlimit="10"/>
<path d="M1115.02 462.12C1114.87 458.862 1113.9 455.693 1112.2 452.908C1110.51 450.122 1108.14 447.808 1105.31 446.18L1100.95 454.8L1101.08 444.36C1099 443.752 1096.83 443.492 1094.67 443.59C1090.83 443.77 1087.12 445.086 1084.02 447.372C1080.93 449.658 1078.58 452.81 1077.27 456.431C1075.97 460.052 1075.77 463.978 1076.69 467.714C1077.62 471.449 1079.63 474.826 1082.48 477.417C1085.33 480.008 1088.88 481.698 1092.68 482.271C1096.49 482.845 1100.38 482.277 1103.86 480.64C1107.34 479.002 1110.26 476.369 1112.25 473.072C1114.24 469.776 1115.2 465.964 1115.02 462.12V462.12Z" fill="#3F3D56"/>
<path d="M1080.32 593.86C1078.28 597.827 1074.93 600.972 1070.85 602.767C1066.76 604.561 1062.19 604.897 1057.88 603.717C1053.58 602.537 1049.81 599.914 1047.21 596.286C1044.62 592.659 1043.34 588.249 1043.61 583.795C1043.88 579.341 1045.67 575.114 1048.68 571.823C1051.7 568.533 1055.75 566.378 1060.16 565.721C1064.58 565.064 1069.08 565.945 1072.92 568.215C1076.76 570.485 1079.71 574.007 1081.26 578.19L1069.1 588.08L1082.5 584.96C1082.49 588.058 1081.75 591.11 1080.32 593.86V593.86Z" fill="#3F3D56"/>
<path d="M1070.71 556.05C1068.16 556.17 1065.61 555.785 1063.2 554.919C1060.8 554.052 1058.59 552.721 1056.7 551C1054.81 549.279 1053.28 547.203 1052.19 544.89C1051.1 542.577 1050.48 540.073 1050.36 537.52C1050.21 534.472 1050.78 531.432 1052.04 528.65C1053.2 526.05 1054.92 523.737 1057.07 521.873C1059.23 520.009 1061.76 518.639 1064.5 517.86L1064.39 525.86L1068.8 517.14H1068.85C1071.4 517.02 1073.95 517.405 1076.36 518.272C1078.76 519.138 1080.97 520.47 1082.86 522.19C1084.75 523.911 1086.28 525.987 1087.37 528.3C1088.46 530.613 1089.08 533.117 1089.2 535.67C1089.32 538.223 1088.94 540.774 1088.07 543.179C1087.2 545.583 1085.87 547.793 1084.15 549.683C1082.43 551.572 1080.35 553.105 1078.04 554.192C1075.73 555.279 1073.22 555.9 1070.67 556.02L1070.71 556.05Z" fill="#3F3D56"/>
<path d="M1117.95 524.62C1115.37 524.792 1112.78 524.446 1110.33 523.604C1107.88 522.762 1105.62 521.44 1103.69 519.716C1101.76 517.992 1100.19 515.9 1099.08 513.562C1097.97 511.225 1097.33 508.689 1097.21 506.103C1097.09 503.517 1097.49 500.933 1098.38 498.502C1099.27 496.07 1100.63 493.841 1102.39 491.944C1104.15 490.047 1106.28 488.52 1108.64 487.453C1110.99 486.386 1113.54 485.8 1116.13 485.73C1119.77 485.553 1123.38 486.409 1126.55 488.2L1123.11 497.62L1130.19 490.83C1133.99 494.294 1136.26 499.124 1136.5 504.26C1136.59 506.061 1136.42 507.866 1136 509.62C1135.03 513.743 1132.75 517.438 1129.49 520.145C1126.23 522.852 1122.18 524.423 1117.95 524.62V524.62Z" fill="#3F3D56"/>
<path opacity="0.1" d="M1112.4 467.31C1107.91 467.8 1103.55 469.2 1099.04 469.48C1094.53 469.76 1089.58 468.68 1086.73 465.17C1085.19 463.29 1084.43 460.9 1083.13 458.84C1081.9 456.922 1080.22 455.339 1078.23 454.23C1076.98 456.697 1076.27 459.401 1076.15 462.163C1076.03 464.926 1076.5 467.682 1077.52 470.249C1078.55 472.816 1080.11 475.135 1082.11 477.051C1084.1 478.967 1086.48 480.437 1089.08 481.361C1091.69 482.286 1094.46 482.645 1097.22 482.414C1099.97 482.183 1102.65 481.367 1105.06 480.022C1107.48 478.676 1109.58 476.831 1111.22 474.61C1112.87 472.389 1114.02 469.842 1114.61 467.14C1113.87 467.18 1113.14 467.23 1112.4 467.31Z" fill="black"/>
<path opacity="0.1" d="M1117.95 524.62C1114.6 524.773 1111.26 524.056 1108.27 522.54C1105.27 521.024 1102.72 518.76 1100.86 515.967C1098.99 513.174 1097.88 509.947 1097.64 506.6C1097.39 503.252 1098.01 499.897 1099.44 496.86C1100.98 497.905 1102.31 499.236 1103.35 500.78C1104.74 502.87 1105.58 505.29 1107.21 507.21C1110.21 510.78 1115.42 511.94 1120.11 511.73C1124.8 511.52 1129.34 510.18 1134.02 509.73C1134.67 509.67 1135.33 509.63 1136.02 509.61C1135.05 513.738 1132.77 517.438 1129.5 520.147C1126.24 522.856 1122.19 524.427 1117.95 524.62V524.62Z" fill="black"/>
<path opacity="0.1" d="M1070.71 556.05C1068.16 556.17 1065.61 555.785 1063.2 554.919C1060.8 554.052 1058.59 552.721 1056.7 551C1054.81 549.279 1053.28 547.203 1052.19 544.89C1051.1 542.577 1050.48 540.073 1050.36 537.52C1050.21 534.472 1050.78 531.432 1052.04 528.65C1053.64 529.719 1055.04 531.075 1056.15 532.65C1057.66 534.78 1058.61 537.24 1060.38 539.21C1063.66 542.86 1069.18 544.15 1074.15 544.03C1078.97 543.93 1083.61 542.75 1088.4 542.38C1087.21 546.2 1084.88 549.561 1081.71 552.007C1078.55 554.453 1074.71 555.865 1070.71 556.05V556.05Z" fill="black"/>
<path opacity="0.1" d="M1080.32 593.86C1078.06 598.31 1074.17 601.72 1069.46 603.383C1064.75 605.047 1059.58 604.837 1055.03 602.797C1050.47 600.757 1046.87 597.043 1044.97 592.424C1043.08 587.805 1043.03 582.634 1044.84 577.98C1046.44 579.034 1047.88 580.318 1049.11 581.79C1050.96 584.05 1052.18 586.61 1054.32 588.71C1058.32 592.61 1064.72 594.22 1070.44 594.37C1073.74 594.397 1077.04 594.227 1080.32 593.86V593.86Z" fill="black"/>
<path d="M109.93 618.32C105.81 610.68 110.49 601.32 115.87 594.5C121.25 587.68 127.81 580.6 127.67 571.91C127.47 559.44 114.23 552.07 103.67 545.45C95.8162 540.544 88.5723 534.723 82.09 528.11C79.3754 525.563 77.1311 522.557 75.46 519.23C73.27 514.35 73.34 508.8 73.46 503.46C73.92 485.647 74.8 467.86 76.1 450.1" stroke="#3F3D56" stroke-width="4" stroke-miterlimit="10"/>
<path d="M55.98 449.12C56.1304 445.862 57.0987 442.693 58.7957 439.908C60.4926 437.122 62.8636 434.808 65.69 433.18L70.05 441.8L69.92 431.36C71.9997 430.752 74.1655 430.492 76.33 430.59C80.1745 430.77 83.8792 432.086 86.9757 434.372C90.0722 436.658 92.4214 439.81 93.7262 443.431C95.0311 447.052 95.233 450.978 94.3064 454.714C93.3798 458.449 91.3663 461.826 88.5206 464.417C85.6749 467.008 82.1247 468.698 78.3189 469.271C74.5132 469.845 70.6229 469.277 67.1398 467.64C63.6568 466.002 60.7375 463.369 58.751 460.072C56.7646 456.776 55.8003 452.964 55.98 449.12V449.12Z" fill="#3F3D56"/>
<path d="M90.68 580.86C92.7219 584.827 96.0657 587.972 100.151 589.767C104.236 591.561 108.814 591.897 113.117 590.717C117.42 589.537 121.187 586.914 123.785 583.286C126.384 579.659 127.656 575.249 127.389 570.795C127.122 566.341 125.331 562.114 122.318 558.823C119.304 555.533 115.251 553.378 110.838 552.721C106.425 552.064 101.92 552.945 98.0782 555.215C94.2369 557.485 91.2929 561.007 89.74 565.19L101.9 575.08L88.5 571.96C88.5056 575.058 89.2531 578.11 90.68 580.86V580.86Z" fill="#3F3D56"/>
<path d="M100.29 543.05C102.843 543.17 105.394 542.785 107.799 541.919C110.203 541.052 112.413 539.721 114.303 538C116.193 536.279 117.725 534.203 118.812 531.89C119.9 529.577 120.521 527.073 120.64 524.52C120.791 521.472 120.216 518.432 118.96 515.65C117.797 513.05 116.079 510.737 113.927 508.873C111.774 507.009 109.239 505.639 106.5 504.86L106.61 512.86L102.2 504.14C97.0442 503.899 92.0037 505.715 88.1873 509.19C84.3709 512.665 82.0913 517.514 81.85 522.67C81.6086 527.826 83.4253 532.866 86.9004 536.683C90.3754 540.499 95.2242 542.779 100.38 543.02L100.29 543.05Z" fill="#3F3D56"/>
<path d="M53.05 511.62C55.6332 511.792 58.2246 511.446 60.6727 510.604C63.1208 509.762 65.3764 508.44 67.3075 506.716C69.2386 504.992 70.8065 502.9 71.9194 500.562C73.0322 498.225 73.6678 495.689 73.7888 493.103C73.9098 490.517 73.5139 487.933 72.6242 485.502C71.7345 483.07 70.3689 480.841 68.6072 478.944C66.8456 477.047 64.7233 475.52 62.3645 474.453C60.0058 473.386 57.4579 472.8 54.87 472.73C51.2499 472.562 47.6558 473.418 44.5 475.2L47.94 484.62L40.81 477.86C37.0173 481.316 34.7484 486.135 34.5 491.26C34.4114 493.061 34.5798 494.866 35 496.62C35.9678 500.743 38.2536 504.438 41.5109 507.145C44.7682 509.852 48.8193 511.423 53.05 511.62Z" fill="#3F3D56"/>
<path opacity="0.1" d="M58.6 454.31C63.09 454.8 67.45 456.2 71.96 456.48C76.47 456.76 81.42 455.68 84.27 452.17C85.81 450.29 86.57 447.9 87.87 445.84C89.0977 443.922 90.7811 442.339 92.77 441.23C94.0192 443.697 94.7284 446.401 94.8503 449.163C94.9723 451.926 94.5043 454.682 93.4774 457.249C92.4505 459.816 90.8884 462.135 88.8951 464.051C86.9018 465.967 84.523 467.437 81.9173 468.361C79.3116 469.286 76.5388 469.645 73.7836 469.414C71.0283 469.183 68.3539 468.367 65.9386 467.022C63.5232 465.676 61.4223 463.831 59.7758 461.61C58.1294 459.389 56.9751 456.842 56.39 454.14C57.13 454.18 57.86 454.23 58.6 454.31Z" fill="black"/>
<path opacity="0.1" d="M53.05 511.62C56.4034 511.773 59.7394 511.056 62.7345 509.54C65.7295 508.024 68.282 505.76 70.1443 502.967C72.0066 500.174 73.1155 496.947 73.3636 493.6C73.6116 490.252 72.9903 486.897 71.56 483.86C70.0183 484.905 68.691 486.236 67.65 487.78C66.26 489.87 65.42 492.29 63.79 494.21C60.79 497.78 55.58 498.94 50.89 498.73C46.2 498.52 41.66 497.18 36.98 496.73C36.33 496.67 35.67 496.63 34.98 496.61C35.9468 500.738 38.2348 504.438 41.4963 507.147C44.7578 509.856 48.8145 511.427 53.05 511.62V511.62Z" fill="black"/>
<path opacity="0.1" d="M100.29 543.05C102.843 543.17 105.394 542.785 107.799 541.919C110.203 541.052 112.413 539.721 114.303 538C116.193 536.279 117.725 534.203 118.812 531.89C119.9 529.577 120.521 527.073 120.64 524.52C120.791 521.472 120.216 518.432 118.96 515.65C117.355 516.719 115.962 518.075 114.85 519.65C113.34 521.78 112.39 524.24 110.62 526.21C107.34 529.86 101.82 531.15 96.85 531.03C92.03 530.93 87.39 529.75 82.6 529.38C83.7873 533.2 86.1223 536.561 89.2874 539.007C92.4526 541.453 96.2942 542.865 100.29 543.05V543.05Z" fill="black"/>
<path opacity="0.1" d="M90.68 580.86C92.9444 585.31 96.8329 588.72 101.541 590.383C106.249 592.047 111.416 591.837 115.974 589.797C120.531 587.757 124.13 584.043 126.026 579.424C127.922 574.805 127.97 569.634 126.16 564.98C124.558 566.034 123.119 567.318 121.89 568.79C120.04 571.05 118.82 573.61 116.68 575.71C112.68 579.61 106.28 581.22 100.56 581.37C97.2594 581.397 93.9602 581.227 90.68 580.86V580.86Z" fill="black"/>
<path d="M313.8 589.21L327.12 581.38C325.32 578.303 323.018 575.548 320.31 573.23L295.19 581.04L314.87 569.47C309.997 566.801 304.513 565.447 298.957 565.542C293.402 565.636 287.967 567.175 283.187 570.008C278.407 572.84 274.447 576.868 271.696 581.696C268.946 586.523 267.499 591.984 267.5 597.54C267.5 615.21 281.83 615.82 299.5 615.82C317.17 615.82 331.5 615.21 331.5 597.54C331.511 593.061 330.573 588.631 328.75 584.54L313.8 589.21Z" fill="#3F3D56"/>
<path opacity="0.1" d="M317.19 606.39C315.771 604.968 314.187 603.723 312.47 602.68C310.06 601.07 307.55 599.43 304.7 598.89C302.2 598.41 299.62 598.82 297.07 598.67C292.642 598.4 288.474 596.489 285.38 593.31C283.56 591.43 282.13 589.12 279.94 587.68C277.492 586.226 274.604 585.697 271.8 586.19C270.987 586.303 270.182 586.467 269.39 586.68C268.137 590.163 267.497 593.838 267.5 597.54C267.5 615.21 281.83 615.82 299.5 615.82C308.08 615.82 315.86 615.68 321.61 613.51L320.61 611.72C319.702 609.805 318.552 608.014 317.19 606.39Z" fill="black"/>
</g>
<defs>
<clipPath id="clip0_1_2">
<rect width="1143" height="663.73" fill="white"/>
</clipPath>
</defs>
</svg>
